<svg width="989" height="59" viewBox="0 0 989 59" fill="none" xmlns="http://www.w3.org/2000/svg">
<rect x="254.668" y="1" width="225.998" height="56.1321" rx="28.066" stroke="#02379A" stroke-width="2"/>
<path d="M318.103 19.4424C319.371 19.4424 320.501 19.7029 321.494 20.2239C322.497 20.7449 323.278 21.4772 323.839 22.4209C324.399 23.3646 324.679 24.4509 324.679 25.6796C324.679 26.6528 324.492 27.5425 324.119 28.3486C323.745 29.1448 323.219 29.8133 322.541 30.3539C321.873 30.8848 321.091 31.2632 320.197 31.4893L325.107 39.496H322.423L317.852 31.8285C317.714 31.8383 317.508 31.8432 317.233 31.8432H311.924V39.496H309.609V19.4424H318.103ZM318.058 29.8526C318.874 29.8526 319.607 29.6756 320.256 29.3217C320.914 28.9679 321.43 28.4763 321.804 27.8472C322.177 27.2181 322.364 26.5005 322.364 25.6944C322.364 24.8981 322.172 24.1854 321.789 23.5563C321.415 22.9272 320.894 22.4357 320.226 22.0818C319.567 21.7181 318.83 21.5362 318.014 21.5362H311.924V29.8526H318.058Z" fill="#202020"/>
<path d="M328.926 19.4424H342.152V21.5657H331.241V28.2896H340.737V30.2802H331.241V37.3874H342.285V39.496H328.926V19.4424Z" fill="#202020"/>
<path d="M346.207 19.4424H348.522V37.3874H358.461V39.496H346.207V19.4424Z" fill="#202020"/>
<path d="M361.867 19.4424H364.182V39.496H361.867V19.4424Z" fill="#202020"/>
<path d="M378.78 39.8794C376.863 39.8794 375.098 39.4174 373.486 38.4934C371.884 37.5595 370.616 36.2963 369.682 34.7038C368.748 33.1015 368.281 31.3517 368.281 29.4545C368.281 27.5376 368.748 25.7829 369.682 24.1904C370.616 22.588 371.884 21.3249 373.486 20.4008C375.098 19.4669 376.863 19 378.78 19C380.215 19 381.591 19.2703 382.909 19.811C384.236 20.3418 385.376 21.1135 386.329 22.126C387.283 23.1287 387.937 24.3132 388.291 25.6796H385.931C385.371 24.2543 384.452 23.1434 383.174 22.3472C381.896 21.5509 380.417 21.1528 378.736 21.1528C377.241 21.1528 375.87 21.5116 374.622 22.2292C373.383 22.9468 372.4 23.9397 371.673 25.2078C370.955 26.4661 370.596 27.8816 370.596 29.4545C370.596 31.0371 370.955 32.4576 371.673 33.7159C372.4 34.9741 373.383 35.9572 374.622 36.6649C375.87 37.3727 377.241 37.7266 378.736 37.7266C380.269 37.7266 381.596 37.4366 382.717 36.8566C383.837 36.2668 384.717 35.4755 385.356 34.4826C386.005 33.4898 386.413 32.3789 386.58 31.1502H378.647V29.0268H388.984C388.984 31.0322 388.581 32.8606 387.774 34.5121C386.968 36.1538 385.794 37.4612 384.25 38.4344C382.717 39.3977 380.893 39.8794 378.78 39.8794Z" fill="#202020"/>
<path d="M393.068 19.4424H395.383V28.4223H407.386V19.4424H409.716V39.496H407.386V30.5161H395.383V39.496H393.068V19.4424Z" fill="#202020"/>
<path d="M419.742 21.5362H413.299V19.4424H428.531V21.5362H422.057V39.496H419.742V21.5362Z" fill="#202020"/>
<rect x="1" y="1" width="225.998" height="56.1321" rx="28.066" stroke="#02379A" stroke-width="2"/>
<path d="M70.966 39.8794C69.0393 39.8794 67.2796 39.4174 65.6871 38.4934C64.0946 37.5595 62.8364 36.2963 61.9123 34.7038C60.9981 33.1113 60.541 31.3615 60.541 29.4545C60.541 27.5376 60.9981 25.7829 61.9123 24.1904C62.8364 22.588 64.0946 21.3249 65.6871 20.4008C67.2796 19.4669 69.0393 19 70.966 19C72.411 19 73.7774 19.2703 75.0652 19.811C76.3628 20.3517 77.4736 21.1577 78.3976 22.2292C79.3217 23.2909 79.9459 24.5787 80.2703 26.0925H77.911C77.4588 24.4902 76.6085 23.2663 75.3601 22.4209C74.1117 21.5755 72.6273 21.1528 70.907 21.1528C69.4128 21.1528 68.0513 21.5116 66.8225 22.2292C65.5938 22.937 64.6255 23.9249 63.9177 25.193C63.2099 26.4513 62.856 27.8718 62.856 29.4545C62.856 31.0371 63.2099 32.4576 63.9177 33.7159C64.6255 34.9741 65.5938 35.9572 66.8225 36.6649C68.0513 37.3727 69.4128 37.7266 70.907 37.7266C72.6175 37.7266 74.0969 37.3039 75.3453 36.4585C76.6036 35.6033 77.4588 34.3794 77.911 32.7869H80.285C79.9508 34.3008 79.3217 35.5934 78.3976 36.6649C77.4834 37.7266 76.3775 38.5278 75.0799 39.0684C73.7922 39.6091 72.4209 39.8794 70.966 39.8794Z" fill="#202020"/>
<path d="M92.8628 19.4424C94.1309 19.4424 95.2614 19.7029 96.2542 20.2239C97.2569 20.7449 98.0384 21.4772 98.5988 22.4209C99.1591 23.3646 99.4392 24.4509 99.4392 25.6796C99.4392 26.6528 99.2525 27.5425 98.8789 28.3486C98.5054 29.1448 97.9795 29.8133 97.3012 30.3539C96.6327 30.8848 95.8512 31.2632 94.9567 31.4893L99.8669 39.496H97.1832L92.6121 31.8285C92.4745 31.8383 92.2681 31.8432 91.9928 31.8432H86.6845V39.496H84.3695V19.4424H92.8628ZM92.8186 29.8526C93.6345 29.8526 94.3668 29.6756 95.0156 29.3217C95.6743 28.9679 96.1904 28.4763 96.5639 27.8472C96.9375 27.2181 97.1242 26.5005 97.1242 25.6944C97.1242 24.8981 96.9325 24.1854 96.5492 23.5563C96.1756 22.9272 95.6546 22.4357 94.9861 22.0818C94.3275 21.7181 93.5903 21.5362 92.7743 21.5362H86.6845V29.8526H92.8186Z" fill="#202020"/>
<path d="M103.686 19.4424H116.912V21.5657H106.001V28.2896H115.497V30.2802H106.001V37.3874H117.045V39.496H103.686V19.4424Z" fill="#202020"/>
<path d="M135.182 39.496L133.191 34.7775H122.811L120.82 39.496H118.358L126.88 19.4424H129.122L137.644 39.496H135.182ZM123.651 32.8016H132.351L128.089 22.6863L128.016 22.3914H128.001L127.913 22.6863L123.651 32.8016Z" fill="#202020"/>
<path d="M142.628 21.5362H136.185V19.4424H151.417V21.5362H144.943V39.496H142.628V21.5362Z" fill="#202020"/>
<path d="M155 19.4424H168.226V21.5657H157.315V28.2896H166.811V30.2802H157.315V37.3874H168.359V39.496H155V19.4424Z" fill="#202020"/>
<rect x="508.334" y="1" width="225.998" height="56.1321" rx="28.066" stroke="#02379A" stroke-width="2"/>
<path d="M572.005 19.4424C573.273 19.4424 574.404 19.7029 575.396 20.2239C576.399 20.7449 577.181 21.4772 577.741 22.4209C578.301 23.3646 578.581 24.4509 578.581 25.6796C578.581 26.6528 578.395 27.5425 578.021 28.3486C577.648 29.1448 577.122 29.8133 576.443 30.3539C575.775 30.8848 574.993 31.2632 574.099 31.4893L579.009 39.496H576.325L571.754 31.8285C571.617 31.8383 571.41 31.8432 571.135 31.8432H565.827V39.496H563.512V19.4424H572.005ZM571.961 29.8526C572.777 29.8526 573.509 29.6756 574.158 29.3217C574.816 28.9679 575.333 28.4763 575.706 27.8472C576.08 27.2181 576.266 26.5005 576.266 25.6944C576.266 24.8981 576.075 24.1854 575.691 23.5563C575.318 22.9272 574.797 22.4357 574.128 22.0818C573.47 21.7181 572.732 21.5362 571.917 21.5362H565.827V29.8526H571.961Z" fill="#202020"/>
<path d="M582.828 19.4424H596.055V21.5657H585.143V28.2896H594.639V30.2802H585.143V37.3874H596.187V39.496H582.828V19.4424Z" fill="#202020"/>
<path d="M600.11 19.4424H602.115L609.93 29.7788L609.945 29.7641L617.745 19.4424H619.765V39.496H617.45V23.2024L610.269 32.7279H609.561L602.425 23.1877V39.496H600.11V19.4424Z" fill="#202020"/>
<path d="M634.54 39.8794C632.604 39.8794 630.814 39.4174 629.173 38.4934C627.541 37.5595 626.243 36.2963 625.28 34.7038C624.326 33.1015 623.85 31.3517 623.85 29.4545C623.85 27.5376 624.326 25.7829 625.28 24.1904C626.243 22.588 627.541 21.3249 629.173 20.4008C630.805 19.4669 632.594 19 634.54 19C636.477 19 638.261 19.4669 639.893 20.4008C641.534 21.3249 642.832 22.588 643.785 24.1904C644.749 25.7829 645.23 27.5376 645.23 29.4545C645.23 31.3517 644.749 33.1015 643.785 34.7038C642.832 36.2963 641.534 37.5595 639.893 38.4934C638.261 39.4174 636.477 39.8794 634.54 39.8794ZM634.54 37.7266C636.064 37.7266 637.465 37.3629 638.742 36.6354C640.03 35.908 641.048 34.9151 641.795 33.6569C642.552 32.3888 642.93 30.988 642.93 29.4545C642.93 27.9111 642.552 26.5054 641.795 25.2373C641.048 23.9692 640.03 22.9714 638.742 22.244C637.465 21.5165 636.064 21.1528 634.54 21.1528C633.016 21.1528 631.611 21.5215 630.323 22.2587C629.045 22.9862 628.032 23.9839 627.285 25.252C626.538 26.5103 626.165 27.9111 626.165 29.4545C626.165 30.988 626.538 32.3888 627.285 33.6569C628.042 34.9151 629.06 35.908 630.338 36.6354C631.616 37.3629 633.016 37.7266 634.54 37.7266Z" fill="#202020"/>
<path d="M645.835 19.4424H648.283L655.464 36.5027L655.508 36.4732L662.659 19.4424H665.122L656.555 39.496H654.387L645.835 19.4424Z" fill="#202020"/>
<path d="M668.263 19.4424H681.489V21.5657H670.578V28.2896H680.074V30.2802H670.578V37.3874H681.622V39.496H668.263V19.4424Z" fill="#202020"/>
<rect x="762.002" y="1" width="225.998" height="56.1321" rx="28.066" stroke="#02379A" stroke-width="2"/>
<path d="M823.327 39.8794C821.401 39.8794 819.641 39.4174 818.048 38.4934C816.456 37.5595 815.198 36.2963 814.274 34.7038C813.359 33.1113 812.902 31.3615 812.902 29.4545C812.902 27.5376 813.359 25.7829 814.274 24.1904C815.198 22.588 816.456 21.3249 818.048 20.4008C819.641 19.4669 821.401 19 823.327 19C824.772 19 826.139 19.2703 827.427 19.811C828.724 20.3517 829.835 21.1577 830.759 22.2292C831.683 23.2909 832.307 24.5787 832.632 26.0925H830.272C829.82 24.4902 828.97 23.2663 827.721 22.4209C826.473 21.5755 824.989 21.1528 823.268 21.1528C821.774 21.1528 820.413 21.5116 819.184 22.2292C817.955 22.937 816.987 23.9249 816.279 25.193C815.571 26.4513 815.217 27.8718 815.217 29.4545C815.217 31.0371 815.571 32.4576 816.279 33.7159C816.987 34.9741 817.955 35.9572 819.184 36.6649C820.413 37.3727 821.774 37.7266 823.268 37.7266C824.979 37.7266 826.458 37.3039 827.707 36.4585C828.965 35.6033 829.82 34.3794 830.272 32.7869H832.646C832.312 34.3008 831.683 35.5934 830.759 36.6649C829.845 37.7266 828.739 38.5278 827.441 39.0684C826.153 39.6091 824.782 39.8794 823.327 39.8794Z" fill="#202020"/>
<path d="M836.731 19.4424H839.046V28.4223H851.049V19.4424H853.378V39.496H851.049V30.5161H839.046V39.496H836.731V19.4424Z" fill="#202020"/>
<path d="M873.24 39.496L871.25 34.7775H860.869L858.878 39.496H856.416L864.939 19.4424H867.18L875.703 39.496H873.24ZM861.709 32.8016H870.409L866.148 22.6863L866.074 22.3914H866.059L865.971 22.6863L861.709 32.8016Z" fill="#202020"/>
<path d="M878.755 19.4424H880.687L893.441 35.618L893.456 35.6328V19.4424H895.771V39.496H893.81L881.085 23.3646L881.07 23.3499V39.496H878.755V19.4424Z" fill="#202020"/>
<path d="M910.354 39.8794C908.437 39.8794 906.673 39.4174 905.061 38.4934C903.458 37.5595 902.19 36.2963 901.256 34.7038C900.323 33.1015 899.856 31.3517 899.856 29.4545C899.856 27.5376 900.323 25.7829 901.256 24.1904C902.19 22.588 903.458 21.3249 905.061 20.4008C906.673 19.4669 908.437 19 910.354 19C911.79 19 913.166 19.2703 914.483 19.811C915.81 20.3418 916.95 21.1135 917.904 22.126C918.858 23.1287 919.511 24.3132 919.865 25.6796H917.506C916.946 24.2543 916.026 23.1434 914.748 22.3472C913.471 21.5509 911.991 21.1528 910.31 21.1528C908.816 21.1528 907.445 21.5116 906.196 22.2292C904.958 22.9468 903.975 23.9397 903.247 25.2078C902.529 26.4661 902.171 27.8816 902.171 29.4545C902.171 31.0371 902.529 32.4576 903.247 33.7159C903.975 34.9741 904.958 35.9572 906.196 36.6649C907.445 37.3727 908.816 37.7266 910.31 37.7266C911.844 37.7266 913.171 37.4366 914.291 36.8566C915.412 36.2668 916.292 35.4755 916.931 34.4826C917.58 33.4898 917.988 32.3789 918.155 31.1502H910.222V29.0268H920.558C920.558 31.0322 920.155 32.8606 919.349 34.5121C918.543 36.1538 917.368 37.4612 915.825 38.4344C914.291 39.3977 912.468 39.8794 910.354 39.8794Z" fill="#202020"/>
<path d="M924.643 19.4424H937.869V21.5657H926.958V28.2896H936.454V30.2802H926.958V37.3874H938.002V39.496H924.643V19.4424Z" fill="#202020"/>
</svg>
