<svg width="1535" height="314" viewBox="0 0 1535 314" fill="none" xmlns="http://www.w3.org/2000/svg">
<path d="M17.8003 144C11.6669 144 7.13359 141.133 4.20026 135.4C1.40026 129.533 0.40026 121.133 1.20026 110.2C2.13359 99.2667 5.13359 86.5333 10.2003 72C15.4003 56.9333 21.1336 44 27.4003 33.2C33.6669 22.2667 40.0003 14 46.4003 8.4C52.9336 2.8 59.0669 0 64.8003 0C69.4669 0 73.0003 1.93333 75.4003 5.8C77.9336 9.66667 78.8669 15.4667 78.2003 23.2C77.6669 30.9333 75.3336 40.4667 71.2003 51.8L54.2003 54C57.5336 45.0667 59.9336 37.7333 61.4003 32C62.8669 26.1333 63.4669 21.8667 63.2003 19.2C63.0669 16.4 62.4003 15 61.2003 15C59.6003 15 56.9336 17.3333 53.2003 22C49.6003 26.5333 45.5336 33.1333 41.0003 41.8C36.4669 50.4667 32.2003 60.5333 28.2003 72C24.2003 83.0667 21.2669 92.9333 19.4003 101.6C17.5336 110.267 16.6669 117 16.8003 121.8C16.9336 126.6 18.0003 129 20.0003 129C21.0669 129 22.6669 127.867 24.8003 125.6C26.9336 123.333 29.4669 119.533 32.4003 114.2C35.3336 108.867 38.4669 102.067 41.8003 93.8L58.8003 91.6C54.2669 104 49.6669 114.067 45.0003 121.8C40.3336 129.533 35.8003 135.2 31.4003 138.8C27.0003 142.267 22.4669 144 17.8003 144Z" fill="#02379A"/>
<path d="M87.4346 142L105.035 106L143.035 2H164.035L146.635 38L108.635 142H87.4346ZM50.4346 142L68.0346 106L106.035 2H127.235L109.635 38L71.6346 142H50.4346ZM85.4346 76L89.0346 65L130.235 61L125.035 76H85.4346Z" fill="#02379A"/>
<path d="M118.458 142L180.458 35L192.658 2H206.458L183.658 142H161.458L173.058 110L186.458 48.6H185.458L137.658 142H118.458ZM151.658 103L155.658 92L184.858 89L179.658 103H151.658Z" fill="#02379A"/>
<path d="M189.692 142L207.292 106L245.092 2H260.692L253.292 31.4L251.292 89.8H252.292L284.492 2H305.092L287.492 38L249.292 142H233.892L241.092 113.6L242.492 56.6H241.492L209.892 142H189.692Z" fill="#02379A"/>
<path d="M297.678 144C291.945 144 287.612 141.067 284.678 135.2C281.878 129.2 280.878 120.733 281.678 109.8C282.478 98.8667 285.345 86.2667 290.278 72C295.478 56.8 301.345 43.8 307.878 33C314.545 22.0667 321.145 13.8667 327.678 8.4C334.212 2.8 340.278 0 345.878 0C350.678 0 354.478 1.93333 357.278 5.8C360.078 9.66667 361.278 15.5333 360.878 23.4C360.612 31.1333 358.345 40.6 354.078 51.8L337.078 54C340.545 45.2 342.878 37.8667 344.078 32C345.412 26.1333 345.812 21.8667 345.278 19.2C344.878 16.4 344.078 15 342.878 15C341.145 15 338.412 17.0667 334.678 21.2C331.078 25.3333 326.945 31.7333 322.278 40.4C317.612 48.9333 312.945 59.4667 308.278 72C304.145 83.4667 301.212 93.5333 299.478 102.2C297.878 110.867 297.278 117.533 297.678 122.2C298.212 126.733 299.412 129 301.278 129C302.745 129 304.678 128 307.078 126C309.478 123.867 312.145 120.4 315.078 115.6C318.012 110.667 320.745 104.267 323.278 96.4L328.678 78.6H317.678L321.478 67.6L350.678 64.6L336.278 106L327.478 142H319.078L321.078 113.8L326.078 114.4C323.812 121.333 321.012 127 317.678 131.4C314.478 135.8 311.145 139 307.678 141C304.212 143 300.878 144 297.678 144Z" fill="#02379A"/>
<path d="M336.967 142L354.567 106L391.167 5.6L398.367 15.8L379.967 13.6L384.167 2H434.567L426.567 18L395.367 15.2L407.367 7.00001L359.167 139L352.567 131.4L389.767 126L381.767 142H336.967ZM374.167 75L377.767 64L406.767 61L401.767 75H374.167Z" fill="#02379A"/>
<path d="M422.755 142L484.755 35L496.955 2H510.755L487.955 142H465.755L477.355 110L490.755 48.6H489.755L441.955 142H422.755ZM455.955 103L459.955 92L489.155 89L483.955 103H455.955Z" fill="#02379A"/>
<path d="M493.989 142L511.589 106L549.389 2H564.989L557.589 31.4L555.589 89.8H556.589L588.789 2H609.389L591.789 38L553.589 142H538.189L545.389 113.6L546.789 56.6H545.789L514.189 142H493.989Z" fill="#02379A"/>
<path d="M580.775 142L598.375 106L602.575 94.8L615.375 2H637.575L625.975 34L617.775 74.6H618.775L656.775 2H675.175L619.175 94.8L601.975 142H580.775Z" fill="#02379A"/>
<path d="M641.666 142L659.266 106L696.266 5L702.066 12.2L673.266 18L677.266 2H734.466L726.266 18L701.066 12L712.666 5L662.866 142H641.666Z" fill="#02379A"/>
<path d="M723.567 142L741.167 106L779.167 2H800.167L782.767 38L744.767 142H723.567ZM686.567 142L704.167 106L742.167 2H763.367L745.767 38L707.767 142H686.567ZM721.567 76L725.167 65L766.367 61L761.167 76H721.567Z" fill="#02379A"/>
<path d="M761.591 142L779.191 106L817.191 2H838.391L820.791 38L782.591 142H761.591Z" fill="#02379A"/>
<path d="M799.653 142L817.253 106L855.053 2H870.653L863.253 31.4L861.253 89.8H862.253L894.453 2H915.053L897.453 38L859.253 142H843.853L851.053 113.6L852.453 56.6H851.453L819.853 142H799.653Z" fill="#02379A"/>
<path d="M907.639 144C901.906 144 897.573 141.067 894.639 135.2C891.839 129.2 890.839 120.733 891.639 109.8C892.439 98.8667 895.306 86.2667 900.239 72C905.439 56.8 911.306 43.8 917.839 33C924.506 22.0667 931.106 13.8667 937.639 8.4C944.173 2.8 950.239 0 955.839 0C960.639 0 964.439 1.93333 967.239 5.8C970.039 9.66667 971.239 15.5333 970.839 23.4C970.573 31.1333 968.306 40.6 964.039 51.8L947.039 54C950.506 45.2 952.839 37.8667 954.039 32C955.373 26.1333 955.773 21.8667 955.239 19.2C954.839 16.4 954.039 15 952.839 15C951.106 15 948.373 17.0667 944.639 21.2C941.039 25.3333 936.906 31.7333 932.239 40.4C927.573 48.9333 922.906 59.4667 918.239 72C914.106 83.4667 911.173 93.5333 909.439 102.2C907.839 110.867 907.239 117.533 907.639 122.2C908.173 126.733 909.373 129 911.239 129C912.706 129 914.639 128 917.039 126C919.439 123.867 922.106 120.4 925.039 115.6C927.973 110.667 930.706 104.267 933.239 96.4L938.639 78.6H927.639L931.439 67.6L960.639 64.6L946.239 106L937.439 142H929.039L931.039 113.8L936.039 114.4C933.773 121.333 930.973 127 927.639 131.4C924.439 135.8 921.106 139 917.639 141C914.173 143 910.839 144 907.639 144Z" fill="#02379A"/>
<path d="M396.864 314C392.464 314 388.931 312.133 386.264 308.4C383.598 304.667 382.398 298.8 382.664 290.8C382.798 282.8 384.864 272.733 388.864 260.6L405.864 258.4C402.664 267.733 400.331 275.467 398.864 281.6C397.531 287.6 396.998 292 397.264 294.8C397.664 297.6 398.398 299 399.464 299C401.464 299 404.464 295.533 408.464 288.6C412.598 281.667 417.264 271.067 422.464 256.8L452.064 175.6L458.264 183.4L422.264 188L426.064 172H474.464L456.864 208L438.864 257C433.264 272.333 427.998 284.2 423.064 292.6C418.131 300.867 413.598 306.533 409.464 309.6C405.331 312.533 401.131 314 396.864 314Z" fill="#02379A"/>
<path d="M464.425 314C459.225 314 455.159 311.867 452.225 307.6C449.292 303.2 448.025 296.533 448.425 287.6C448.959 278.667 451.559 267.8 456.225 255L486.425 172H507.625L490.025 208L473.025 255C469.825 263.667 467.492 271.333 466.025 278C464.559 284.667 463.892 289.867 464.025 293.6C464.292 297.2 465.225 299 466.825 299C468.692 299 471.092 297.133 474.025 293.4C476.959 289.667 480.092 284.533 483.425 278C486.759 271.333 490.025 263.667 493.225 255L523.425 172H544.425L527.025 208L509.825 255C504.892 269 499.825 280.4 494.625 289.2C489.559 297.867 484.492 304.2 479.425 308.2C474.359 312.067 469.359 314 464.425 314Z" fill="#02379A"/>
<path d="M529.547 314C524.88 314 520.947 312.267 517.747 308.8C514.68 305.2 512.814 299.933 512.147 293C511.48 285.933 512.547 277.333 515.347 267.2L532.547 265.2C530.014 273.333 528.48 279.933 527.947 285C527.414 290.067 527.48 293.667 528.147 295.8C528.947 297.933 529.947 299 531.147 299C532.747 299 534.614 297.533 536.747 294.6C539.014 291.533 540.947 287.6 542.547 282.8C544.28 278 545.28 272.933 545.547 267.6C545.814 262.267 545.48 256.2 544.547 249.4L542.547 233.6C541.614 226.533 541.214 220.333 541.347 215C541.48 209.533 542.08 204.8 543.147 200.8C544.747 194.4 547.147 188.867 550.347 184.2C553.547 179.533 557.08 176 560.947 173.6C564.947 171.2 568.88 170 572.747 170C577.547 170 581.414 171.8 584.347 175.4C587.281 179 588.88 184.2 589.147 191C589.414 197.8 588.214 205.8 585.547 215L568.547 217.2C571.614 206.8 573.214 198.867 573.347 193.4C573.48 187.8 572.547 185 570.547 185C569.614 185 568.414 185.733 566.947 187.2C565.614 188.533 564.214 190.4 562.747 192.8C561.414 195.067 560.347 197.533 559.547 200.2C558.214 204.733 557.347 209.4 556.947 214.2C556.68 219 557.014 224.733 557.947 231.4L559.947 247.2C561.014 254.4 561.48 260.8 561.347 266.4C561.214 271.867 560.547 277 559.347 281.8C557.481 288.733 554.947 294.6 551.747 299.4C548.547 304.2 545.014 307.867 541.147 310.4C537.28 312.8 533.414 314 529.547 314Z" fill="#02379A"/>
<path d="M565.072 312L582.672 276L619.672 175L625.472 182.2L596.672 188L600.672 172H657.872L649.672 188L624.472 182L636.072 175L586.272 312H565.072Z" fill="#02379A"/>
<path d="M645.158 312L662.158 276L695.358 184.6L687.358 183.6L691.558 172H706.958C715.891 172 723.158 174.733 728.758 180.2C734.491 185.533 737.758 193.467 738.558 204C739.358 214.533 737.025 227.2 731.558 242C726.225 256.4 719.491 268.867 711.358 279.4C703.358 289.933 694.825 298 685.758 303.6C676.825 309.2 668.291 312 660.158 312H645.158ZM665.958 298C669.958 298 674.825 295.8 680.558 291.4C686.291 286.867 692.158 280.4 698.158 272C704.158 263.467 709.291 253.467 713.558 242C718.225 230 720.825 219.8 721.358 211.4C722.025 202.867 721.025 196.533 718.358 192.4C715.825 188.133 712.158 186 707.358 186L713.958 179.8L668.758 303.4L665.958 298Z" fill="#02379A"/>
<path d="M716.233 312L733.833 276L767.233 184.6L759.233 183.6L763.433 172H778.633C786.366 172 792.966 173.667 798.433 177C803.9 180.2 807.566 184.667 809.433 190.4C811.3 196.133 810.966 202.533 808.433 209.6C806.433 214.933 803.366 219.933 799.233 224.6C795.233 229.267 790.766 233.2 785.833 236.4C781.033 239.467 776.433 241.667 772.033 243L769.833 240.6H792.833L774.633 312H753.633L776.433 250H760.233L737.433 312H716.233ZM758.433 238C762.433 237.2 766.5 235.6 770.633 233.2C774.766 230.667 778.566 227.533 782.033 223.8C785.633 220.067 788.5 215.933 790.633 211.4C792.9 206.6 793.966 202.2 793.833 198.2C793.7 194.2 792.3 191.067 789.633 188.8C786.966 186.533 783.166 185.4 778.233 185.4L785.433 180.2L763.233 241.2L758.433 238Z" fill="#02379A"/>
<path d="M814.63 314C808.363 314 803.83 311.067 801.03 305.2C798.23 299.2 797.363 290.733 798.43 279.8C799.497 268.867 802.563 256.267 807.63 242C812.563 227.6 818.163 214.933 824.43 204C830.697 193.067 837.03 184.667 843.43 178.8C849.963 172.933 856.097 170 861.83 170C868.23 170 872.763 173 875.43 179C878.23 184.867 879.097 193.267 878.03 204.2C876.963 215.133 873.963 227.733 869.03 242C863.963 256.4 858.297 269.067 852.03 280C845.763 290.933 839.43 299.333 833.03 305.2C826.63 311.067 820.497 314 814.63 314ZM816.63 299C818.763 299 821.83 296.533 825.83 291.6C829.83 286.533 834.097 279.6 838.63 270.8C843.163 262 847.23 252.4 850.83 242C854.963 230.667 858.03 220.667 860.03 212C862.03 203.333 862.963 196.667 862.83 192C862.83 187.333 861.83 185 859.83 185C857.697 185 854.63 187.533 850.63 192.6C846.63 197.533 842.363 204.4 837.83 213.2C833.43 222 829.363 231.6 825.63 242C821.497 253.333 818.43 263.333 816.43 272C814.43 280.667 813.43 287.333 813.43 292C813.563 296.667 814.63 299 816.63 299Z" fill="#02379A"/>
<path d="M854.514 312L872.114 276L905.514 184.6L897.514 183.6L901.714 172H916.714C924.848 172 931.648 173.867 937.114 177.6C942.714 181.333 946.314 186.467 947.914 193C949.514 199.4 948.848 206.533 945.914 214.4C943.114 221.867 938.714 228.667 932.714 234.8C926.714 240.933 919.914 245.933 912.314 249.8C904.848 253.533 897.314 255.933 889.714 257L894.314 244C898.448 243.2 902.581 241.533 906.714 239C910.981 236.333 914.981 233 918.714 229C922.448 224.867 925.514 220.2 927.914 215C930.581 209.4 931.914 204.4 931.914 200C932.048 195.6 930.781 192.2 928.114 189.8C925.448 187.267 921.648 186 916.714 186L924.314 178.2L875.514 312H854.514Z" fill="#02379A"/>
<path d="M951.01 312L968.61 276L1005.61 175L1011.41 182.2L982.61 188L986.61 172H1043.81L1035.61 188L1010.41 182L1022.01 175L972.21 312H951.01Z" fill="#02379A"/>
<path d="M1032.91 312L1050.51 276L1088.51 172H1109.51L1092.11 208L1054.11 312H1032.91ZM995.911 312L1013.51 276L1051.51 172H1072.71L1055.11 208L1017.11 312H995.911ZM1030.91 246L1034.51 235L1075.71 231L1070.51 246H1030.91Z" fill="#02379A"/>
<path d="M1070.33 312L1087.93 276L1124.53 175.6L1131.73 185.8L1113.33 183.6L1117.53 172H1167.93L1159.93 188L1128.73 185.2L1140.73 177L1092.53 309L1085.93 301.4L1123.13 296L1115.13 312H1070.33ZM1107.53 245L1111.13 234L1140.13 231L1135.13 245H1107.53Z" fill="#02379A"/>
<path d="M1167.03 312L1184.63 276L1222.63 172H1243.83L1226.23 208L1188.03 312H1167.03Z" fill="#02379A"/>
<path d="M1200.69 312L1273.49 172H1287.69L1277.49 200L1259.89 278.6H1260.89L1300.09 200L1310.29 172H1324.69L1294.89 312H1273.09L1285.69 279L1297.09 229.4H1296.09L1254.29 312H1241.89L1259.89 229.4H1258.89L1220.29 312H1200.69Z" fill="#02379A"/>
<path d="M1296.55 312L1358.55 205L1370.75 172H1384.55L1361.75 312H1339.55L1351.15 280L1364.55 218.6H1363.55L1315.75 312H1296.55ZM1329.75 273L1333.75 262L1362.95 259L1357.75 273H1329.75Z" fill="#02379A"/>
<path d="M1397.26 314C1391.52 314 1387.19 311.067 1384.26 305.2C1381.46 299.2 1380.46 290.733 1381.26 279.8C1382.06 268.867 1384.92 256.267 1389.86 242C1395.06 226.8 1400.92 213.8 1407.46 203C1414.12 192.067 1420.72 183.867 1427.26 178.4C1433.79 172.8 1439.86 170 1445.46 170C1450.26 170 1454.06 171.933 1456.86 175.8C1459.66 179.667 1460.86 185.533 1460.46 193.4C1460.19 201.133 1457.92 210.6 1453.66 221.8L1436.66 224C1440.12 215.2 1442.46 207.867 1443.66 202C1444.99 196.133 1445.39 191.867 1444.86 189.2C1444.46 186.4 1443.66 185 1442.46 185C1440.72 185 1437.99 187.067 1434.26 191.2C1430.66 195.333 1426.52 201.733 1421.86 210.4C1417.19 218.933 1412.52 229.467 1407.86 242C1403.72 253.467 1400.79 263.533 1399.06 272.2C1397.46 280.867 1396.86 287.533 1397.26 292.2C1397.79 296.733 1398.99 299 1400.86 299C1402.32 299 1404.26 298 1406.66 296C1409.06 293.867 1411.72 290.4 1414.66 285.6C1417.59 280.667 1420.32 274.267 1422.86 266.4L1428.26 248.6H1417.26L1421.06 237.6L1450.26 234.6L1435.86 276L1427.06 312H1418.66L1420.66 283.8L1425.66 284.4C1423.39 291.333 1420.59 297 1417.26 301.4C1414.06 305.8 1410.72 309 1407.26 311C1403.79 313 1400.46 314 1397.26 314Z" fill="#02379A"/>
<path d="M1436.55 312L1454.15 276L1490.75 175.6L1497.95 185.8L1479.55 183.6L1483.75 172H1534.15L1526.15 188L1494.95 185.2L1506.95 177L1458.75 309L1452.15 301.4L1489.35 296L1481.35 312H1436.55ZM1473.75 245L1477.35 234L1506.35 231L1501.35 245H1473.75Z" fill="#02379A"/>
</svg>
