<svg width="893" height="744" viewBox="0 0 893 744" fill="none" xmlns="http://www.w3.org/2000/svg">
<path d="M117.867 144C111.733 144 107.2 141.133 104.267 135.4C101.467 129.533 100.467 121.133 101.267 110.2C102.2 99.2667 105.2 86.5333 110.267 72C115.467 56.9333 121.2 44 127.467 33.2C133.733 22.2667 140.067 14 146.467 8.4C153 2.8 159.133 0 164.867 0C169.533 0 173.067 1.93333 175.467 5.8C178 9.66667 178.933 15.4667 178.267 23.2C177.733 30.9333 175.4 40.4667 171.267 51.8L154.267 54C157.6 45.0667 160 37.7333 161.467 32C162.933 26.1333 163.533 21.8667 163.267 19.2C163.133 16.4 162.467 15 161.267 15C159.667 15 157 17.3333 153.267 22C149.667 26.5333 145.6 33.1333 141.067 41.8C136.533 50.4667 132.267 60.5333 128.267 72C124.267 83.0667 121.333 92.9333 119.467 101.6C117.6 110.267 116.733 117 116.867 121.8C117 126.6 118.067 129 120.067 129C121.133 129 122.733 127.867 124.867 125.6C127 123.333 129.533 119.533 132.467 114.2C135.4 108.867 138.533 102.067 141.867 93.8L158.867 91.6C154.333 104 149.733 114.067 145.067 121.8C140.4 129.533 135.867 135.2 131.467 138.8C127.067 142.267 122.533 144 117.867 144Z" fill="#02379A"/>
<path d="M187.501 142L205.101 106L243.101 2H264.101L246.701 38L208.701 142H187.501ZM150.501 142L168.101 106L206.101 2H227.301L209.701 38L171.701 142H150.501ZM185.501 76L189.101 65L230.301 61L225.101 76H185.501Z" fill="#02379A"/>
<path d="M218.524 142L280.524 35L292.724 2H306.524L283.724 142H261.524L273.124 110L286.524 48.6H285.524L237.724 142H218.524ZM251.724 103L255.724 92L284.924 89L279.724 103H251.724Z" fill="#02379A"/>
<path d="M289.759 142L307.359 106L345.159 2H360.759L353.359 31.4L351.359 89.8H352.359L384.559 2H405.159L387.559 38L349.359 142H333.959L341.159 113.6L342.559 56.6H341.559L309.959 142H289.759Z" fill="#02379A"/>
<path d="M397.745 144C392.011 144 387.678 141.067 384.745 135.2C381.945 129.2 380.945 120.733 381.745 109.8C382.545 98.8667 385.411 86.2667 390.345 72C395.545 56.8 401.411 43.8 407.945 33C414.611 22.0667 421.211 13.8667 427.745 8.4C434.278 2.8 440.345 0 445.945 0C450.745 0 454.545 1.93333 457.345 5.8C460.145 9.66667 461.345 15.5333 460.945 23.4C460.678 31.1333 458.411 40.6 454.145 51.8L437.145 54C440.611 45.2 442.945 37.8667 444.145 32C445.478 26.1333 445.878 21.8667 445.345 19.2C444.945 16.4 444.145 15 442.945 15C441.211 15 438.478 17.0667 434.745 21.2C431.145 25.3333 427.011 31.7333 422.345 40.4C417.678 48.9333 413.011 59.4667 408.345 72C404.211 83.4667 401.278 93.5333 399.545 102.2C397.945 110.867 397.345 117.533 397.745 122.2C398.278 126.733 399.478 129 401.345 129C402.811 129 404.745 128 407.145 126C409.545 123.867 412.211 120.4 415.145 115.6C418.078 110.667 420.811 104.267 423.345 96.4L428.745 78.6H417.745L421.545 67.6L450.745 64.6L436.345 106L427.545 142H419.145L421.145 113.8L426.145 114.4C423.878 121.333 421.078 127 417.745 131.4C414.545 135.8 411.211 139 407.745 141C404.278 143 400.945 144 397.745 144Z" fill="#02379A"/>
<path d="M437.034 142L454.634 106L491.234 5.6L498.434 15.8L480.034 13.6L484.234 2H534.634L526.634 18L495.434 15.2L507.434 7.00001L459.234 139L452.634 131.4L489.834 126L481.834 142H437.034ZM474.234 75L477.834 64L506.834 61L501.834 75H474.234Z" fill="#02379A"/>
<path d="M344 342L406 235L418.2 202H432L409.2 342H387L398.6 310L412 248.6H411L363.2 342H344ZM377.2 303L381.2 292L410.4 289L405.2 303H377.2Z" fill="#02379A"/>
<path d="M415.234 342L432.834 306L470.634 202H486.234L478.834 231.4L476.834 289.8H477.834L510.034 202H530.634L513.034 238L474.834 342H459.434L466.634 313.6L468.034 256.6H467.034L435.434 342H415.234Z" fill="#02379A"/>
<path d="M502.02 342L519.62 306L523.82 294.8L536.62 202H558.82L547.22 234L539.02 274.6H540.02L578.02 202H596.42L540.42 294.8L523.22 342H502.02Z" fill="#02379A"/>
<path d="M562.911 342L580.511 306L617.511 205L623.311 212.2L594.511 218L598.511 202H655.711L647.511 218L622.311 212L633.911 205L584.111 342H562.911Z" fill="#02379A"/>
<path d="M644.812 342L662.412 306L700.412 202H721.412L704.013 238L666.013 342H644.812ZM607.812 342L625.412 306L663.412 202H684.612L667.013 238L629.013 342H607.812ZM642.812 276L646.412 265L687.612 261L682.412 276H642.812Z" fill="#02379A"/>
<path d="M682.836 342L700.436 306L738.436 202H759.636L742.036 238L703.836 342H682.836Z" fill="#02379A"/>
<path d="M720.898 342L738.498 306L776.298 202H791.898L784.498 231.4L782.498 289.8H783.498L815.698 202H836.298L818.698 238L780.498 342H765.098L772.298 313.6L773.698 256.6H772.698L741.098 342H720.898Z" fill="#02379A"/>
<path d="M828.884 344C823.151 344 818.818 341.067 815.884 335.2C813.084 329.2 812.084 320.733 812.884 309.8C813.684 298.867 816.551 286.267 821.484 272C826.684 256.8 832.551 243.8 839.084 233C845.751 222.067 852.351 213.867 858.884 208.4C865.418 202.8 871.484 200 877.084 200C881.884 200 885.684 201.933 888.484 205.8C891.284 209.667 892.484 215.533 892.084 223.4C891.818 231.133 889.551 240.6 885.284 251.8L868.284 254C871.751 245.2 874.084 237.867 875.284 232C876.618 226.133 877.018 221.867 876.484 219.2C876.084 216.4 875.284 215 874.084 215C872.351 215 869.618 217.067 865.884 221.2C862.284 225.333 858.151 231.733 853.484 240.4C848.818 248.933 844.151 259.467 839.484 272C835.351 283.467 832.418 293.533 830.684 302.2C829.084 310.867 828.484 317.533 828.884 322.2C829.418 326.733 830.618 329 832.484 329C833.951 329 835.884 328 838.284 326C840.684 323.867 843.351 320.4 846.284 315.6C849.218 310.667 851.951 304.267 854.484 296.4L859.884 278.6H848.884L852.684 267.6L881.884 264.6L867.484 306L858.684 342H850.284L852.284 313.8L857.284 314.4C855.018 321.333 852.218 327 848.884 331.4C845.684 335.8 842.351 339 838.884 341C835.418 343 832.084 344 828.884 344Z" fill="#02379A"/>
<path d="M14.2364 544C9.83636 544 6.30303 542.133 3.63636 538.4C0.969697 534.667 -0.230303 528.8 0.0363636 520.8C0.169697 512.8 2.23636 502.733 6.23636 490.6L23.2364 488.4C20.0364 497.733 17.703 505.467 16.2364 511.6C14.903 517.6 14.3697 522 14.6364 524.8C15.0364 527.6 15.7697 529 16.8364 529C18.8364 529 21.8364 525.533 25.8364 518.6C29.9697 511.667 34.6364 501.067 39.8364 486.8L69.4364 405.6L75.6364 413.4L39.6364 418L43.4364 402H91.8364L74.2364 438L56.2364 487C50.6364 502.333 45.3697 514.2 40.4364 522.6C35.503 530.867 30.9697 536.533 26.8364 539.6C22.703 542.533 18.503 544 14.2364 544Z" fill="#02379A"/>
<path d="M81.7973 544C76.5973 544 72.5306 541.867 69.5973 537.6C66.664 533.2 65.3973 526.533 65.7973 517.6C66.3306 508.667 68.9306 497.8 73.5973 485L103.797 402H124.997L107.397 438L90.3973 485C87.1973 493.667 84.864 501.333 83.3973 508C81.9306 514.667 81.264 519.867 81.3973 523.6C81.664 527.2 82.5973 529 84.1973 529C86.064 529 88.464 527.133 91.3973 523.4C94.3306 519.667 97.464 514.533 100.797 508C104.131 501.333 107.397 493.667 110.597 485L140.797 402H161.797L144.397 438L127.197 485C122.264 499 117.197 510.4 111.997 519.2C106.931 527.867 101.864 534.2 96.7973 538.2C91.7306 542.067 86.7306 544 81.7973 544Z" fill="#02379A"/>
<path d="M146.919 544C142.253 544 138.319 542.267 135.119 538.8C132.053 535.2 130.186 529.933 129.519 523C128.853 515.933 129.919 507.333 132.719 497.2L149.919 495.2C147.386 503.333 145.853 509.933 145.319 515C144.786 520.067 144.853 523.667 145.519 525.8C146.319 527.933 147.319 529 148.519 529C150.119 529 151.986 527.533 154.119 524.6C156.386 521.533 158.319 517.6 159.919 512.8C161.653 508 162.653 502.933 162.919 497.6C163.186 492.267 162.853 486.2 161.919 479.4L159.919 463.6C158.986 456.533 158.586 450.333 158.719 445C158.853 439.533 159.453 434.8 160.519 430.8C162.119 424.4 164.519 418.867 167.719 414.2C170.919 409.533 174.453 406 178.319 403.6C182.319 401.2 186.253 400 190.119 400C194.919 400 198.786 401.8 201.719 405.4C204.653 409 206.253 414.2 206.519 421C206.786 427.8 205.586 435.8 202.919 445L185.919 447.2C188.986 436.8 190.586 428.867 190.719 423.4C190.853 417.8 189.919 415 187.919 415C186.986 415 185.786 415.733 184.319 417.2C182.986 418.533 181.586 420.4 180.119 422.8C178.786 425.067 177.719 427.533 176.919 430.2C175.586 434.733 174.719 439.4 174.319 444.2C174.053 449 174.386 454.733 175.319 461.4L177.319 477.2C178.386 484.4 178.853 490.8 178.719 496.4C178.586 501.867 177.919 507 176.719 511.8C174.853 518.733 172.319 524.6 169.119 529.4C165.919 534.2 162.386 537.867 158.519 540.4C154.653 542.8 150.786 544 146.919 544Z" fill="#02379A"/>
<path d="M182.444 542L200.044 506L237.044 405L242.844 412.2L214.044 418L218.044 402H275.244L267.044 418L241.844 412L253.444 405L203.644 542H182.444Z" fill="#02379A"/>
<path d="M262.53 542L279.53 506L312.73 414.6L304.73 413.6L308.93 402H324.33C333.263 402 340.53 404.733 346.13 410.2C351.863 415.533 355.13 423.467 355.93 434C356.73 444.533 354.397 457.2 348.93 472C343.597 486.4 336.863 498.867 328.73 509.4C320.73 519.933 312.197 528 303.13 533.6C294.197 539.2 285.663 542 277.53 542H262.53ZM283.33 528C287.33 528 292.197 525.8 297.93 521.4C303.663 516.867 309.53 510.4 315.53 502C321.53 493.467 326.663 483.467 330.93 472C335.597 460 338.197 449.8 338.73 441.4C339.397 432.867 338.397 426.533 335.73 422.4C333.197 418.133 329.53 416 324.73 416L331.33 409.8L286.13 533.4L283.33 528Z" fill="#02379A"/>
<path d="M333.605 542L351.205 506L384.605 414.6L376.605 413.6L380.805 402H396.005C403.738 402 410.338 403.667 415.805 407C421.272 410.2 424.938 414.667 426.805 420.4C428.672 426.133 428.338 432.533 425.805 439.6C423.805 444.933 420.738 449.933 416.605 454.6C412.605 459.267 408.138 463.2 403.205 466.4C398.405 469.467 393.805 471.667 389.405 473L387.205 470.6H410.205L392.005 542H371.005L393.805 480H377.605L354.805 542H333.605ZM375.805 468C379.805 467.2 383.872 465.6 388.005 463.2C392.138 460.667 395.938 457.533 399.405 453.8C403.005 450.067 405.872 445.933 408.005 441.4C410.272 436.6 411.338 432.2 411.205 428.2C411.072 424.2 409.672 421.067 407.005 418.8C404.338 416.533 400.538 415.4 395.605 415.4L402.805 410.2L380.605 471.2L375.805 468Z" fill="#02379A"/>
<path d="M432.002 544C425.735 544 421.202 541.067 418.402 535.2C415.602 529.2 414.735 520.733 415.802 509.8C416.869 498.867 419.935 486.267 425.002 472C429.935 457.6 435.535 444.933 441.802 434C448.069 423.067 454.402 414.667 460.802 408.8C467.335 402.933 473.469 400 479.202 400C485.602 400 490.135 403 492.802 409C495.602 414.867 496.469 423.267 495.402 434.2C494.335 445.133 491.335 457.733 486.402 472C481.335 486.4 475.669 499.067 469.402 510C463.135 520.933 456.802 529.333 450.402 535.2C444.002 541.067 437.869 544 432.002 544ZM434.002 529C436.135 529 439.202 526.533 443.202 521.6C447.202 516.533 451.469 509.6 456.002 500.8C460.535 492 464.602 482.4 468.202 472C472.335 460.667 475.402 450.667 477.402 442C479.402 433.333 480.335 426.667 480.202 422C480.202 417.333 479.202 415 477.202 415C475.069 415 472.002 417.533 468.002 422.6C464.002 427.533 459.735 434.4 455.202 443.2C450.802 452 446.735 461.6 443.002 472C438.869 483.333 435.802 493.333 433.802 502C431.802 510.667 430.802 517.333 430.802 522C430.935 526.667 432.002 529 434.002 529Z" fill="#02379A"/>
<path d="M471.886 542L489.486 506L522.886 414.6L514.886 413.6L519.086 402H534.086C542.22 402 549.02 403.867 554.486 407.6C560.086 411.333 563.686 416.467 565.286 423C566.886 429.4 566.22 436.533 563.286 444.4C560.486 451.867 556.086 458.667 550.086 464.8C544.086 470.933 537.286 475.933 529.686 479.8C522.22 483.533 514.686 485.933 507.086 487L511.686 474C515.82 473.2 519.953 471.533 524.086 469C528.353 466.333 532.353 463 536.086 459C539.82 454.867 542.886 450.2 545.286 445C547.953 439.4 549.286 434.4 549.286 430C549.42 425.6 548.153 422.2 545.486 419.8C542.82 417.267 539.02 416 534.086 416L541.686 408.2L492.886 542H471.886Z" fill="#02379A"/>
<path d="M208 742L225.6 706L262.6 605L268.4 612.2L239.6 618L243.6 602H300.8L292.6 618L267.4 612L279 605L229.2 742H208Z" fill="#02379A"/>
<path d="M289.902 742L307.502 706L345.502 602H366.502L349.102 638L311.102 742H289.902ZM252.902 742L270.502 706L308.502 602H329.702L312.102 638L274.102 742H252.902ZM287.902 676L291.502 665L332.702 661L327.502 676H287.902Z" fill="#02379A"/>
<path d="M327.325 742L344.925 706L381.525 605.6L388.725 615.8L370.325 613.6L374.525 602H424.925L416.925 618L385.725 615.2L397.725 607L349.525 739L342.925 731.4L380.125 726L372.125 742H327.325ZM364.525 675L368.125 664L397.125 661L392.125 675H364.525Z" fill="#02379A"/>
<path d="M424.019 742L441.619 706L479.619 602H500.819L483.219 638L445.019 742H424.019Z" fill="#02379A"/>
<path d="M457.681 742L530.481 602H544.681L534.481 630L516.881 708.6H517.881L557.081 630L567.281 602H581.681L551.881 742H530.081L542.681 709L554.081 659.4H553.081L511.281 742H498.881L516.881 659.4H515.881L477.281 742H457.681Z" fill="#02379A"/>
<path d="M553.542 742L615.542 635L627.742 602H641.542L618.742 742H596.542L608.142 710L621.542 648.6H620.542L572.742 742H553.542ZM586.742 703L590.742 692L619.942 689L614.742 703H586.742Z" fill="#02379A"/>
<path d="M654.247 744C648.514 744 644.18 741.067 641.247 735.2C638.447 729.2 637.447 720.733 638.247 709.8C639.047 698.867 641.914 686.267 646.847 672C652.047 656.8 657.914 643.8 664.447 633C671.114 622.067 677.714 613.867 684.247 608.4C690.78 602.8 696.847 600 702.447 600C707.247 600 711.047 601.933 713.847 605.8C716.647 609.667 717.847 615.533 717.447 623.4C717.18 631.133 714.914 640.6 710.647 651.8L693.647 654C697.114 645.2 699.447 637.867 700.647 632C701.98 626.133 702.38 621.867 701.847 619.2C701.447 616.4 700.647 615 699.447 615C697.714 615 694.98 617.067 691.247 621.2C687.647 625.333 683.514 631.733 678.847 640.4C674.18 648.933 669.514 659.467 664.847 672C660.714 683.467 657.78 693.533 656.047 702.2C654.447 710.867 653.847 717.533 654.247 722.2C654.78 726.733 655.98 729 657.847 729C659.314 729 661.247 728 663.647 726C666.047 723.867 668.714 720.4 671.647 715.6C674.58 710.667 677.314 704.267 679.847 696.4L685.247 678.6H674.247L678.047 667.6L707.247 664.6L692.847 706L684.047 742H675.647L677.647 713.8L682.647 714.4C680.38 721.333 677.58 727 674.247 731.4C671.047 735.8 667.714 739 664.247 741C660.78 743 657.447 744 654.247 744Z" fill="#02379A"/>
<path d="M693.536 742L711.136 706L747.736 605.6L754.936 615.8L736.536 613.6L740.736 602H791.136L783.136 618L751.936 615.2L763.936 607L715.736 739L709.136 731.4L746.336 726L738.336 742H693.536ZM730.736 675L734.336 664L763.336 661L758.336 675H730.736Z" fill="#02379A"/>
</svg>
