<svg width="217" height="56" viewBox="0 0 217 56" fill="none" xmlns="http://www.w3.org/2000/svg">
<rect x="1.06641" y="1" width="214.933" height="53.3107" rx="26.6553" stroke="#F2F2F2" stroke-width="2"/>
<path d="M59.3682 37.9442C57.535 37.9442 55.8608 37.5046 54.3456 36.6254C52.8304 35.7368 51.6332 34.535 50.754 33.0197C49.8841 31.5045 49.4492 29.8397 49.4492 28.0252C49.4492 26.2013 49.8841 24.5318 50.754 23.0166C51.6332 21.492 52.8304 20.2901 54.3456 19.4109C55.8608 18.5224 57.535 18.0781 59.3682 18.0781C60.7431 18.0781 62.0432 18.3353 63.2685 18.8498C64.5031 19.3642 65.56 20.1311 66.4392 21.1506C67.3184 22.1608 67.9123 23.386 68.2209 24.8264H65.9762C65.546 23.3018 64.7369 22.1374 63.5491 21.333C62.3612 20.5286 60.9489 20.1265 59.3121 20.1265C57.8904 20.1265 56.595 20.4678 55.4259 21.1506C54.2567 21.8241 53.3354 22.764 52.662 23.9706C51.9886 25.1678 51.6519 26.5193 51.6519 28.0252C51.6519 29.531 51.9886 30.8826 52.662 32.0798C53.3354 33.277 54.2567 34.2123 55.4259 34.8857C56.595 35.5591 57.8904 35.8958 59.3121 35.8958C60.9395 35.8958 62.3472 35.4937 63.535 34.6893C64.7322 33.8756 65.546 32.7111 65.9762 31.1959H68.235C67.917 32.6363 67.3184 33.8662 66.4392 34.8857C65.5693 35.8958 64.5171 36.6581 63.2825 37.1725C62.0572 37.687 60.7525 37.9442 59.3682 37.9442Z" fill="#F2F2F2"/>
<path d="M72.1212 18.499H74.3239V27.0431H85.744V18.499H87.9607V37.5794H85.744V29.0353H74.3239V37.5794H72.1212V18.499Z" fill="#F2F2F2"/>
<path d="M106.859 37.5794L104.965 33.0899H95.0878L93.1938 37.5794H90.8508L98.96 18.499H101.093L109.202 37.5794H106.859ZM95.8875 31.2099H104.165L100.11 21.5855L100.04 21.305H100.026L99.9421 21.5855L95.8875 31.2099Z" fill="#F2F2F2"/>
<path d="M112.106 18.499H113.944L126.079 33.8896L126.093 33.9036V18.499H128.296V37.5794H126.43L114.323 22.2309L114.308 22.2169V37.5794H112.106V18.499Z" fill="#F2F2F2"/>
<path d="M142.171 37.9442C140.348 37.9442 138.669 37.5046 137.135 36.6254C135.61 35.7368 134.404 34.535 133.515 33.0197C132.627 31.4952 132.182 29.8303 132.182 28.0252C132.182 26.2013 132.627 24.5318 133.515 23.0166C134.404 21.492 135.61 20.2901 137.135 19.4109C138.669 18.5224 140.348 18.0781 142.171 18.0781C143.537 18.0781 144.846 18.3353 146.1 18.8498C147.362 19.3548 148.447 20.089 149.355 21.0524C150.262 22.0064 150.884 23.1335 151.221 24.4336H148.976C148.443 23.0774 147.568 22.0205 146.352 21.2629C145.136 20.5053 143.729 20.1265 142.129 20.1265C140.708 20.1265 139.403 20.4678 138.215 21.1506C137.037 21.8334 136.101 22.7781 135.409 23.9846C134.726 25.1818 134.385 26.5287 134.385 28.0252C134.385 29.531 134.726 30.8826 135.409 32.0798C136.101 33.277 137.037 34.2123 138.215 34.8857C139.403 35.5591 140.708 35.8958 142.129 35.8958C143.588 35.8958 144.851 35.6199 145.917 35.0681C146.984 34.5069 147.821 33.754 148.429 32.8093C149.046 31.8646 149.434 30.8077 149.593 29.6386H142.045V27.6183H151.88C151.88 29.5264 151.497 31.266 150.73 32.8374C149.963 34.3993 148.845 35.6433 147.376 36.5693C145.917 37.4859 144.182 37.9442 142.171 37.9442Z" fill="#F2F2F2"/>
<path d="M155.766 18.499H168.351V20.5193H157.969V26.9168H167.004V28.8108H157.969V35.5732H168.477V37.5794H155.766V18.499Z" fill="#F2F2F2"/>
</svg>
