<svg width="217" height="56" viewBox="0 0 217 56" fill="none" xmlns="http://www.w3.org/2000/svg">
<rect x="1" y="1" width="214.933" height="53.3107" rx="26.6553" stroke="#F2F2F2" stroke-opacity="0.94902" stroke-width="2"/>
<path d="M67.5225 37.9442C65.6893 37.9442 64.0151 37.5046 62.4999 36.6254C60.9847 35.7368 59.7875 34.535 58.9083 33.0197C58.0384 31.5045 57.6035 29.8397 57.6035 28.0252C57.6035 26.2013 58.0384 24.5318 58.9083 23.0166C59.7875 21.492 60.9847 20.2901 62.4999 19.4109C64.0151 18.5224 65.6893 18.0781 67.5225 18.0781C68.8974 18.0781 70.1975 18.3353 71.4228 18.8498C72.6574 19.3642 73.7143 20.1311 74.5935 21.1506C75.4727 22.1608 76.0666 23.386 76.3752 24.8264H74.1305C73.7002 23.3018 72.8912 22.1374 71.7034 21.333C70.5155 20.5286 69.1032 20.1265 67.4664 20.1265C66.0447 20.1265 64.7493 20.4678 63.5802 21.1506C62.411 21.8241 61.4897 22.764 60.8163 23.9706C60.1429 25.1678 59.8062 26.5193 59.8062 28.0252C59.8062 29.531 60.1429 30.8826 60.8163 32.0798C61.4897 33.277 62.411 34.2123 63.5802 34.8857C64.7493 35.5591 66.0447 35.8958 67.4664 35.8958C69.0938 35.8958 70.5015 35.4937 71.6893 34.6893C72.8865 33.8756 73.7002 32.7111 74.1305 31.1959H76.3893C76.0713 32.6363 75.4727 33.8662 74.5935 34.8857C73.7236 35.8958 72.6714 36.6581 71.4368 37.1725C70.2115 37.687 68.9068 37.9442 67.5225 37.9442Z" fill="#F2F2F2"/>
<path d="M88.3566 18.499C89.5632 18.499 90.6388 18.7469 91.5834 19.2426C92.5374 19.7383 93.281 20.4351 93.8142 21.333C94.3473 22.2309 94.6138 23.2644 94.6138 24.4336C94.6138 25.3595 94.4361 26.206 94.0807 26.973C93.7253 27.7306 93.2249 28.3666 92.5795 28.881C91.9435 29.3861 91.2 29.7462 90.3488 29.9613L95.0207 37.5794H92.4673L88.1181 30.284C87.9872 30.2933 87.7907 30.298 87.5288 30.298H82.4782V37.5794H80.2755V18.499H88.3566ZM88.3145 28.404C89.0908 28.404 89.7876 28.2356 90.4049 27.8989C91.0316 27.5622 91.5226 27.0945 91.8781 26.4959C92.2335 25.8973 92.4112 25.2146 92.4112 24.4476C92.4112 23.69 92.2288 23.0119 91.864 22.4133C91.5086 21.8147 91.0129 21.347 90.3769 21.0103C89.7502 20.6643 89.0487 20.4912 88.2724 20.4912H82.4782V28.404H88.3145Z" fill="#F2F2F2"/>
<path d="M98.6544 18.499H111.239V20.5193H100.857V26.9168H109.892V28.8108H100.857V35.5732H111.365V37.5794H98.6544V18.499Z" fill="#F2F2F2"/>
<path d="M128.622 37.5794L126.728 33.0899H116.851L114.957 37.5794H112.614L120.723 18.499H122.856L130.965 37.5794H128.622ZM117.651 31.2099H125.928L121.874 21.5855L121.803 21.305H121.789L121.705 21.5855L117.651 31.2099Z" fill="#F2F2F2"/>
<path d="M135.707 20.4912H129.576V18.499H144.069V20.4912H137.909V37.5794H135.707V20.4912Z" fill="#F2F2F2"/>
<path d="M147.478 18.499H160.062V20.5193H149.68V26.9168H158.716V28.8108H149.68V35.5732H160.189V37.5794H147.478V18.499Z" fill="#F2F2F2"/>
</svg>
