<svg width="143" height="50" viewBox="0 0 143 50" fill="none" xmlns="http://www.w3.org/2000/svg">
<path d="M14.6559 49.9979H0C0 49.9979 1.58403 30.7692 1.58403 25.0968C1.58403 19.4245 0 0 0 0H31.3634C34.1131 0.035207 35.6209 0.606342 36.4032 0.897778C50.7149 6.216 50.9398 28.1245 37.516 34.8608C31.2695 37.9942 24.0843 36.5684 17.3372 36.9576C16.6937 36.9772 16.1462 37.1121 15.6259 37.5639C14.7635 38.3111 14.7068 39.0602 14.6559 39.7448V49.9979ZM16.5588 12.9347C13.021 13.5801 13.3143 20.7174 14.8515 22.9491C15.9643 24.5647 19.021 24.2518 20.8202 24.2244C21.2818 24.2166 21.8216 24.2166 22.2851 24.2126C26.7695 24.1657 34.0622 25.263 34.2108 18.6578C34.3028 14.6011 31.4592 13.1322 27.8568 12.8819C25.4298 12.7136 18.7394 12.5376 16.5608 12.9347H16.5588Z" fill="#D9F47A"/>
<path d="M56.4977 0.00993254C60.368 0.00993254 63.5089 3.15314 63.5089 7.02201L63.3133 25.488L63.5089 49.1472C63.5089 49.6166 63.1275 50 62.6562 50H50.3373C49.8679 50 49.4846 49.6186 49.4846 49.1472L49.6802 25.488L49.4846 7.02201C49.4846 3.15119 52.6274 0.00993254 56.4958 0.00993254H56.4977Z" fill="#D9F47A"/>
<path d="M67.07 49.7064H79.2188C79.4848 49.7064 79.7018 49.4912 79.7018 49.2233V40.8186C79.7018 38.5419 81.5461 36.6974 83.8225 36.6974H101.696C102.411 36.6974 102.99 36.1165 102.99 35.4026V25.3138C102.99 24.5979 102.409 24.019 101.696 24.019H85.3596C82.2873 24.019 79.7957 21.5271 79.7957 18.4543C79.7957 15.3815 82.2873 12.8896 85.3596 12.8896H103.649C104.365 12.8896 104.944 12.3087 104.944 11.5948V2.02827C104.944 0.909466 104.036 0.0019101 102.918 0.0019101H82.2755C73.6001 0.0019101 66.5694 7.03549 66.5694 15.7101V49.2272C66.5694 49.501 66.7963 49.7181 67.0681 49.7084L67.07 49.7064Z" fill="#D9F47A"/>
<path d="M110.36 0H116.98C118.644 0 119.991 1.3496 119.991 3.01216V32.8051C119.991 36.1263 122.684 38.8197 126.005 38.8197H139.988C141.653 38.8197 143 40.1693 143 41.8318V46.9857C143 48.6502 141.651 49.9979 139.988 49.9979H121.746C113.79 49.9979 107.318 43.5922 107.236 35.6373C107.119 24.2576 107.272 9.2614 107.348 2.97499C107.367 1.32613 108.711 0 110.36 0Z" fill="#D9F47A"/>
<path d="M138.682 0.0821344H134.228C132.017 0.0821344 130.225 1.87471 130.225 4.08596V9.101C130.225 11.3122 132.017 13.1048 134.228 13.1048H138.682C140.892 13.1048 142.685 11.3122 142.685 9.101V4.08596C142.685 1.87471 140.892 0.0821344 138.682 0.0821344Z" fill="#D9F47A"/>
</svg>
