<svg width="1945" height="579" viewBox="0 0 1945 579" fill="none" xmlns="http://www.w3.org/2000/svg">
<path fill-rule="evenodd" clip-rule="evenodd" d="M1321.74 1.50711C1311.95 4.00913 1304.18 9.6281 1299.5 17.6077C1294.02 26.9302 1293.98 30.549 1297.39 183.314C1299.81 291.699 1298.25 421.912 1294.08 486.993C1289.83 553.466 1295.96 571.461 1323.88 574.302C1328.64 574.79 1333.57 575.546 1334.83 575.977C1340.59 577.956 1363.57 572.896 1371.09 567.998C1387.96 557 1388.4 552.936 1383.88 447.865C1380.32 365.044 1380.56 189.123 1384.31 100.98C1387.86 17.7773 1386.82 11.9181 1367.16 3.97381C1359.1 0.715528 1330.85 -0.818216 1321.74 1.50711ZM604.716 194.347C568.462 201.337 563.638 213.275 569.634 281.154C582.326 424.745 581.874 356.263 568.01 487.775C561.364 550.735 563.165 561.577 581.832 571.239C610.112 585.869 647.453 579.049 658.584 557.216C663.775 547.024 663.888 539.264 659.481 496.277C643.957 344.94 643.759 471.944 657.857 274.843C661.402 225.198 659.968 214.356 648.407 203.564C640.998 196.644 617.987 191.789 604.716 194.347ZM1578.9 8.40335C1566.64 13.1105 1562.12 19.1606 1562.12 30.8367C1562.12 41.9827 1562.21 42.1594 1587.62 82.4109C1611.82 120.747 1659.88 202.246 1659.88 204.953C1659.88 205.392 1662.73 210.65 1666.2 216.637C1676.45 234.292 1706.56 295.309 1709.4 304.151C1716.79 327.248 1717.25 398.329 1710.39 452.914C1701.26 525.642 1700.15 548.888 1705.35 558.606C1719.22 584.546 1798.47 581.174 1804.11 554.408C1804.54 552.387 1805.25 548.98 1805.69 546.824C1806.13 544.669 1805.42 531.65 1804.11 517.881C1789.91 369.16 1789.39 338.02 1800.03 306.214C1809.34 278.417 1836.94 223.655 1874.19 159.041C1882.98 143.795 1894.49 123.737 1899.78 114.464C1905.07 105.191 1916.36 86.5243 1924.88 72.9753C1944.65 41.5304 1945 40.8095 1945 31.8686C1945 12.4038 1933.06 5.03197 1901.46 4.98956C1863.02 4.94009 1852.8 15.0825 1834.11 71.8162C1808.13 150.7 1772.33 218.552 1756.7 218.552C1743.05 218.552 1696.51 129.115 1671.14 54.1112C1661.1 24.4474 1653.89 14.9694 1636.33 8.39628C1623.46 3.57601 1591.43 3.58307 1578.9 8.40335ZM860.923 5.95457C832.361 9.14218 827.862 26.5574 839.396 89.2846C847.709 134.519 849.502 166.826 849.51 271.784C849.517 355.594 848.655 397.087 843.767 435.133C832.742 520.965 830.878 546.346 834.96 554.969C849.531 585.693 910.13 587.127 925.435 557.117C931.545 545.123 931.262 530.415 923.55 459.595C918.839 416.326 918.351 333.055 922.61 317.435C930.923 286.923 944.816 283.538 1002.53 297.942C1051.07 310.07 1073.54 297.892 1073.54 259.464C1073.54 224.782 1053.58 214.895 1002.73 224.394C926.799 238.572 916.409 229.659 916.43 150.316C916.452 63.0063 931.7 52.8357 1023.85 78.6687C1080.45 94.536 1100.02 93.0023 1114.87 71.5514C1130.9 48.3971 1123.45 12.874 1101.16 6.18782C1094.53 4.20175 878.524 3.98971 860.923 5.95457ZM164.821 1.87281C62.6988 8.62261 23.401 30.5824 10.1228 88.3268C4.33833 113.481 3.76623 126.875 3.61085 241.311C3.49784 320.181 2.74918 435.696 1.13884 459.741C-3.96055 536.024 7.12816 559.079 53.5383 568.663C75.4473 573.187 94.2416 569.78 96.424 560.896C96.9326 558.804 95.1245 551.347 92.1722 543.396C78.9858 507.894 86.5219 389.156 109.455 362.362C127.917 340.784 164.482 322.471 211.252 311.367C349.84 278.459 413.271 206.127 390.811 106.618C371.127 19.4082 312.279 -7.8667 164.821 1.87281ZM236.509 21.0196C307.293 37.3958 342.17 92.9704 328.701 167.939C316.143 237.826 280.249 272.755 189.054 303.833C172.138 309.6 148.407 317.827 136.308 322.124C103.091 333.928 93.4647 332.966 89.1281 317.431C84.2476 299.96 85.9851 136.155 91.4941 94.0659C98.112 43.5661 111.694 26.2287 151.084 17.9946C164.305 15.224 219.989 17.203 236.509 21.0196Z" fill="#1B1B1E"/>
<path d="M560.095 80.7424C558.928 65.0876 561.861 13.1333 598.114 6.14315C611.385 3.58459 630.966 5.41928 639.316 11.1664C648.747 17.6576 652.976 26.4407 655.464 30.7963C660.562 39.723 666.239 54.5995 667.136 63.3482C671.543 106.335 662.173 100.598 652.484 105.591C629.392 115.755 608.521 118.513 588.654 119.755C580.453 119.755 566.498 124.973 563.033 100.87C561.283 88.694 560.351 84.1795 560.095 80.7424Z" fill="#1B1B1E"/>
</svg>
