<svg width="1946" height="580" viewBox="0 0 1946 580" fill="none" xmlns="http://www.w3.org/2000/svg">
<path fill-rule="evenodd" clip-rule="evenodd" d="M1322.48 2.44266C1312.69 4.94468 1304.92 10.5636 1300.24 18.5433C1294.76 27.8658 1294.71 31.4845 1298.12 184.249C1300.55 292.635 1298.99 422.848 1294.82 487.928C1290.56 554.402 1296.7 572.396 1324.61 575.238C1329.37 575.725 1334.3 576.482 1335.56 576.913C1341.32 578.892 1364.3 573.831 1371.83 568.933C1388.7 557.935 1389.13 553.871 1384.62 448.801C1381.06 365.98 1381.29 190.059 1385.05 101.916C1388.59 18.7129 1387.55 12.8536 1367.89 4.90936C1359.83 1.65108 1331.59 0.117331 1322.48 2.44266ZM605.45 195.283C569.196 202.273 564.372 214.21 570.369 282.09C583.061 425.681 582.609 357.199 568.744 488.71C562.098 551.671 563.899 562.513 582.566 572.174C610.846 586.805 648.187 579.984 659.318 558.152C664.51 547.96 664.623 540.199 660.215 497.213C644.691 345.876 644.494 472.88 658.591 275.778C662.137 226.134 660.703 215.292 649.141 204.499C641.732 197.58 618.721 192.724 605.45 195.283ZM1579.63 9.33889C1567.38 14.0461 1562.86 20.0962 1562.86 31.7723C1562.86 42.9183 1562.95 43.095 1588.35 83.3464C1612.56 121.682 1660.61 203.182 1660.61 205.889C1660.61 206.327 1663.46 211.586 1666.93 217.572C1677.18 235.228 1707.3 296.244 1710.13 305.086C1717.53 328.184 1717.99 399.264 1711.13 453.849C1701.99 526.578 1700.89 549.824 1706.08 559.542C1719.96 585.481 1799.21 582.11 1804.84 555.344C1805.28 553.322 1805.98 549.916 1806.43 547.76C1806.86 545.604 1806.16 532.585 1804.84 518.817C1790.65 370.095 1790.13 338.955 1800.77 307.15C1810.08 279.352 1837.67 224.59 1874.92 159.976C1883.72 144.731 1895.23 124.672 1900.52 115.399C1905.8 106.126 1917.09 87.4599 1925.61 73.9108C1945.38 42.4659 1945.73 41.745 1945.73 32.8042C1945.73 13.3393 1933.79 5.96752 1902.2 5.92511C1863.76 5.87563 1853.54 16.018 1834.85 72.7517C1808.86 151.636 1773.07 219.487 1757.44 219.487C1743.79 219.487 1697.24 130.051 1671.87 55.0467C1661.84 25.3829 1654.62 15.9049 1637.07 9.33183C1624.2 4.51155 1592.16 4.51862 1579.63 9.33889ZM861.658 6.89012C833.095 10.0777 828.596 27.4929 840.13 90.2201C848.443 135.454 850.237 167.762 850.244 272.719C850.251 356.53 849.389 398.022 844.502 436.069C833.477 521.901 831.612 547.281 835.694 555.904C850.265 586.628 910.865 588.063 926.17 558.053C932.279 546.059 931.997 531.35 924.284 460.531C919.573 417.261 919.086 333.99 923.345 318.371C931.658 287.859 945.55 284.473 1003.26 298.877C1051.8 311.006 1074.28 298.828 1074.28 260.4C1074.28 225.718 1054.31 215.83 1003.47 225.329C927.533 239.507 917.144 230.595 917.165 151.251C917.186 63.9419 932.435 53.7712 1024.58 79.6042C1081.19 95.4716 1100.75 93.9378 1115.6 72.4869C1131.64 49.3326 1124.18 13.8096 1101.89 7.12337C1095.27 5.1373 879.258 4.92526 861.658 6.89012ZM165.555 2.80835C63.4332 9.55815 24.1354 31.518 10.8572 89.2624C5.07271 114.417 4.50061 127.81 4.34522 242.246C4.23222 321.116 3.48355 436.631 1.87322 460.676C-3.22618 536.96 7.86254 560.015 54.2727 569.599C76.1817 574.122 94.976 570.716 97.1584 561.831C97.6669 559.739 95.8588 552.283 92.9065 544.331C79.7202 508.83 87.2563 390.091 110.189 363.297C128.652 341.719 165.216 323.406 211.987 312.303C350.574 279.395 414.006 207.062 391.546 107.554C371.862 20.3437 313.014 -6.93115 165.555 2.80835ZM237.243 21.9552C308.027 38.3314 342.904 93.9059 329.435 168.875C316.877 238.762 280.984 273.691 189.788 304.768C172.872 310.536 149.141 318.763 137.042 323.06C103.826 334.863 94.1991 333.902 89.8625 318.367C84.982 300.895 86.7195 137.091 92.2285 95.0015C98.8464 44.5017 112.428 27.1642 151.818 18.9301C165.04 16.1595 220.723 18.1385 237.243 21.9552Z" fill="#D1FF5A"/>
<path d="M560.829 81.6779C559.663 66.0232 562.595 14.0688 598.849 7.0787C612.12 4.52013 631.7 6.35483 640.05 12.102C649.481 18.5932 653.711 27.3762 656.198 31.7318C661.296 40.6585 666.973 55.535 667.87 64.2838C672.277 107.27 662.907 101.533 653.218 106.527C630.126 116.691 609.256 119.448 589.388 120.691C581.188 120.691 567.233 125.909 563.767 101.805C562.017 89.6295 561.085 85.115 560.829 81.6779Z" fill="#D1FF5A"/>
</svg>
