<svg width="222" height="66" viewBox="0 0 222 66" fill="none" xmlns="http://www.w3.org/2000/svg">
<path d="M7.68156 66C4.88827 66 2.82366 64.6861 1.48773 62.0583C0.212533 59.3694 -0.242895 55.5194 0.121448 50.5083C0.546514 45.4972 1.9128 39.6611 4.2203 33C6.58853 26.0944 9.19966 20.1667 12.0537 15.2167C14.9077 10.2056 17.7921 6.41667 20.7068 3.85C23.6823 1.28333 26.4756 0 29.0867 0C31.212 0 32.8212 0.88611 33.9142 2.65833C35.068 4.43056 35.4931 7.08889 35.1894 10.6333C34.9466 14.1778 33.8839 18.5472 32.0014 23.7417L24.2592 24.75C25.7773 20.6556 26.8703 17.2944 27.5382 14.6667C28.2062 11.9778 28.4795 10.0222 28.358 8.8C28.2973 7.51667 27.9937 6.875 27.4472 6.875C26.7185 6.875 25.504 7.94444 23.8037 10.0833C22.1642 12.1611 20.3121 15.1861 18.2475 19.1583C16.1829 23.1306 14.2397 27.7444 12.418 33C10.5963 38.0722 9.26038 42.5944 8.41025 46.5667C7.56011 50.5389 7.16541 53.625 7.22613 55.825C7.28686 58.025 7.77265 59.125 8.6835 59.125C9.1693 59.125 9.89798 58.6056 10.8696 57.5667C11.8411 56.5278 12.9949 54.7861 14.3308 52.3417C15.6667 49.8972 17.0938 46.7806 18.6118 42.9917L26.3541 41.9833C24.2895 47.6667 22.1946 52.2806 20.0692 55.825C17.9439 59.3694 15.8793 61.9667 13.8754 63.6167C11.8715 65.2056 9.8069 66 7.68156 66Z" fill="#02379A"/>
<path d="M39.395 65.0833L47.4106 48.5833L64.7169 0.916666H74.2809L66.3564 17.4167L49.0501 65.0833H39.395ZM22.5442 65.0833L30.5597 48.5833L47.866 0.916666H57.5211L49.5056 17.4167L32.1993 65.0833H22.5442ZM38.4842 34.8333L40.1237 29.7917L58.8874 27.9583L56.5192 34.8333H38.4842Z" fill="#02379A"/>
<path d="M53.524 65.0833L81.7606 16.0417L87.3168 0.916666H93.6017L83.2179 65.0833H73.1074L78.3904 50.4167L84.4931 22.275H84.0377L62.2682 65.0833H53.524ZM68.6442 47.2083L70.4659 42.1667L83.7645 40.7917L81.3962 47.2083H68.6442Z" fill="#02379A"/>
<path d="M85.9662 65.0833L93.9817 48.5833L111.197 0.916666H118.302L114.931 14.3917L114.021 41.1583H114.476L129.141 0.916666H138.523L130.507 17.4167L113.11 65.0833H106.096L109.375 52.0667L110.013 25.9417H109.557L95.1658 65.0833H85.9662Z" fill="#02379A"/>
<path d="M135.146 66C132.535 66 130.561 64.6556 129.225 61.9667C127.95 59.2167 127.495 55.3361 127.859 50.325C128.224 45.3139 129.529 39.5389 131.776 33C134.144 26.0333 136.816 20.075 139.791 15.125C142.828 10.1139 145.833 6.35556 148.809 3.85C151.784 1.28333 154.547 0 157.098 0C159.284 0 161.014 0.88611 162.29 2.65833C163.565 4.43056 164.111 7.11945 163.929 10.725C163.808 14.2694 162.775 18.6083 160.832 23.7417L153.09 24.75C154.669 20.7167 155.731 17.3556 156.278 14.6667C156.885 11.9778 157.067 10.0222 156.824 8.8C156.642 7.51667 156.278 6.875 155.731 6.875C154.942 6.875 153.697 7.82222 151.997 9.71667C150.357 11.6111 148.475 14.5444 146.35 18.5167C144.224 22.4278 142.099 27.2556 139.974 33C138.091 38.2556 136.755 42.8694 135.966 46.8417C135.237 50.8139 134.964 53.8694 135.146 56.0083C135.389 58.0861 135.935 59.125 136.786 59.125C137.454 59.125 138.334 58.6667 139.427 57.75C140.52 56.7722 141.735 55.1833 143.071 52.9833C144.406 50.7222 145.651 47.7889 146.805 44.1833L149.264 36.025H144.255L145.985 30.9833L159.284 29.6083L152.726 48.5833L148.718 65.0833H144.892L145.803 52.1583L148.08 52.4333C147.048 55.6111 145.773 58.2083 144.255 60.225C142.797 62.2417 141.279 63.7083 139.7 64.625C138.122 65.5417 136.603 66 135.146 66Z" fill="#02379A"/>
<path d="M153.039 65.0833L161.055 48.5833L177.724 2.56667L181.003 7.24167L172.623 6.23333L174.536 0.916666H197.489L193.846 8.25L179.636 6.96667L185.102 3.20834L163.15 63.7083L160.144 60.225L177.086 57.75L173.443 65.0833H153.039ZM169.981 34.375L171.621 29.3333L184.828 27.9583L182.551 34.375H169.981Z" fill="#02379A"/>
<path d="M179.013 65.0833L187.029 48.5833L202.24 6.69167L198.596 6.23333L200.509 0.916666H207.432C210.954 0.916666 213.96 1.68056 216.449 3.20834C218.939 4.675 220.609 6.72222 221.459 9.35C222.309 11.9778 222.157 14.9111 221.004 18.15C220.093 20.5944 218.696 22.8861 216.814 25.025C214.992 27.1639 212.958 28.9667 210.711 30.4333C208.525 31.8389 206.43 32.8472 204.426 33.4583L203.424 32.3583H213.899L205.61 65.0833H196.046L206.43 36.6667H199.052L188.668 65.0833H179.013ZM198.232 31.1667C200.054 30.8 201.906 30.0667 203.788 28.9667C205.671 27.8056 207.401 26.3694 208.98 24.6583C210.62 22.9472 211.925 21.0528 212.897 18.975C213.929 16.775 214.415 14.7583 214.354 12.925C214.294 11.0917 213.656 9.65555 212.442 8.61666C211.227 7.57778 209.496 7.05833 207.25 7.05833L210.529 4.675L200.418 32.6333L198.232 31.1667Z" fill="#02379A"/>
</svg>
