<svg width="218" height="56" viewBox="0 0 218 56" fill="none" xmlns="http://www.w3.org/2000/svg">
<rect x="1.35547" y="1" width="214.933" height="53.3107" rx="26.6553" stroke="#F2F2F2" stroke-width="2"/>
<path d="M61.6631 18.499C62.8697 18.499 63.9453 18.7469 64.89 19.2426C65.844 19.7383 66.5876 20.4351 67.1207 21.333C67.6538 22.2309 67.9204 23.2644 67.9204 24.4336C67.9204 25.3595 67.7427 26.206 67.3872 26.973C67.0318 27.7306 66.5314 28.3666 65.8861 28.881C65.2501 29.3861 64.5065 29.7462 63.6554 29.9613L68.3272 37.5794H65.7738L61.4246 30.284C61.2937 30.2933 61.0973 30.298 60.8354 30.298H55.7847V37.5794H53.582V18.499H61.6631ZM61.621 28.404C62.3974 28.404 63.0942 28.2356 63.7115 27.8989C64.3381 27.5622 64.8292 27.0945 65.1846 26.4959C65.54 25.8973 65.7177 25.2146 65.7177 24.4476C65.7177 23.69 65.5353 23.0119 65.1706 22.4133C64.8151 21.8147 64.3194 21.347 63.6834 21.0103C63.0568 20.6643 62.3553 20.4912 61.579 20.4912H55.7847V28.404H61.621Z" fill="#F2F2F2"/>
<path d="M71.9609 18.499H84.5456V20.5193H74.1636V26.9168H83.1987V28.8108H74.1636V35.5732H84.6718V37.5794H71.9609V18.499Z" fill="#F2F2F2"/>
<path d="M88.4037 18.499H90.6064V35.5732H100.062V37.5794H88.4037V18.499Z" fill="#F2F2F2"/>
<path d="M103.303 18.499H105.506V37.5794H103.303V18.499Z" fill="#F2F2F2"/>
<path d="M119.395 37.9442C117.571 37.9442 115.893 37.5046 114.359 36.6254C112.834 35.7368 111.628 34.535 110.739 33.0197C109.85 31.4952 109.406 29.8303 109.406 28.0252C109.406 26.2013 109.85 24.5318 110.739 23.0166C111.628 21.492 112.834 20.2901 114.359 19.4109C115.893 18.5224 117.571 18.0781 119.395 18.0781C120.761 18.0781 122.07 18.3353 123.324 18.8498C124.586 19.3548 125.671 20.089 126.579 21.0524C127.486 22.0064 128.108 23.1335 128.444 24.4336H126.2C125.667 23.0774 124.792 22.0205 123.576 21.2629C122.36 20.5053 120.953 20.1265 119.353 20.1265C117.932 20.1265 116.627 20.4678 115.439 21.1506C114.26 21.8334 113.325 22.7781 112.633 23.9846C111.95 25.1818 111.609 26.5287 111.609 28.0252C111.609 29.531 111.95 30.8826 112.633 32.0798C113.325 33.277 114.26 34.2123 115.439 34.8857C116.627 35.5591 117.932 35.8958 119.353 35.8958C120.812 35.8958 122.075 35.6199 123.141 35.0681C124.208 34.5069 125.045 33.754 125.653 32.8093C126.27 31.8646 126.658 30.8077 126.817 29.6386H119.269V27.6183H129.104C129.104 29.5264 128.72 31.266 127.953 32.8374C127.186 34.3993 126.069 35.6433 124.6 36.5693C123.141 37.4859 121.406 37.9442 119.395 37.9442Z" fill="#F2F2F2"/>
<path d="M132.99 18.499H135.193V27.0431H146.613V18.499H148.83V37.5794H146.613V29.0353H135.193V37.5794H132.99V18.499Z" fill="#F2F2F2"/>
<path d="M158.37 20.4912H152.239V18.499H166.732V20.4912H160.572V37.5794H158.37V20.4912Z" fill="#F2F2F2"/>
</svg>
