<svg width="218" height="56" viewBox="0 0 218 56" fill="none" xmlns="http://www.w3.org/2000/svg">
<rect x="1.71094" y="1" width="214.933" height="53.3107" rx="26.6553" stroke="#F2F2F2" stroke-width="2"/>
<path d="M62.2432 18.499C63.4498 18.499 64.5254 18.7469 65.47 19.2426C66.4241 19.7383 67.1676 20.4351 67.7008 21.333C68.2339 22.2309 68.5005 23.2644 68.5005 24.4336C68.5005 25.3595 68.3227 26.206 67.9673 26.973C67.6119 27.7306 67.1115 28.3666 66.4661 28.881C65.8301 29.3861 65.0866 29.7462 64.2354 29.9613L68.9073 37.5794H66.3539L62.0047 30.284C61.8738 30.2933 61.6773 30.298 61.4155 30.298H56.3648V37.5794H54.1621V18.499H62.2432ZM62.2011 28.404C62.9774 28.404 63.6742 28.2356 64.2915 27.8989C64.9182 27.5622 65.4092 27.0945 65.7647 26.4959C66.1201 25.8973 66.2978 25.2146 66.2978 24.4476C66.2978 23.69 66.1154 23.0119 65.7506 22.4133C65.3952 21.8147 64.8995 21.347 64.2635 21.0103C63.6368 20.6643 62.9353 20.4912 62.159 20.4912H56.3648V28.404H62.2011Z" fill="#F2F2F2"/>
<path d="M72.541 18.499H85.1256V20.5193H74.7437V26.9168H83.7788V28.8108H74.7437V35.5732H85.2519V37.5794H72.541V18.499Z" fill="#F2F2F2"/>
<path d="M88.9838 18.499H90.8918L98.3276 28.3338L98.3416 28.3198L105.763 18.499H107.685V37.5794H105.483V22.0766L98.6503 31.1398H97.9768L91.1865 22.0626V37.5794H88.9838V18.499Z" fill="#F2F2F2"/>
<path d="M121.743 37.9442C119.901 37.9442 118.198 37.5046 116.636 36.6254C115.084 35.7368 113.849 34.535 112.932 33.0197C112.025 31.4952 111.572 29.8303 111.572 28.0252C111.572 26.2013 112.025 24.5318 112.932 23.0166C113.849 21.492 115.084 20.2901 116.636 19.4109C118.189 18.5224 119.891 18.0781 121.743 18.0781C123.586 18.0781 125.283 18.5224 126.836 19.4109C128.398 20.2901 129.633 21.492 130.54 23.0166C131.456 24.5318 131.915 26.2013 131.915 28.0252C131.915 29.8303 131.456 31.4952 130.54 33.0197C129.633 34.535 128.398 35.7368 126.836 36.6254C125.283 37.5046 123.586 37.9442 121.743 37.9442ZM121.743 35.8958C123.193 35.8958 124.526 35.5498 125.742 34.8576C126.967 34.1655 127.935 33.2208 128.646 32.0236C129.366 30.8171 129.726 29.4843 129.726 28.0252C129.726 26.5567 129.366 25.2192 128.646 24.0127C127.935 22.8061 126.967 21.8568 125.742 21.1647C124.526 20.4725 123.193 20.1265 121.743 20.1265C120.293 20.1265 118.956 20.4772 117.731 21.1787C116.515 21.8708 115.551 22.8202 114.841 24.0267C114.13 25.2239 113.774 26.5567 113.774 28.0252C113.774 29.4843 114.13 30.8171 114.841 32.0236C115.561 33.2208 116.529 34.1655 117.745 34.8576C118.961 35.5498 120.293 35.8958 121.743 35.8958Z" fill="#F2F2F2"/>
<path d="M132.49 18.499H134.819L141.651 34.7314L141.693 34.7033L148.498 18.499H150.841L142.689 37.5794H140.627L132.49 18.499Z" fill="#F2F2F2"/>
<path d="M153.829 18.499H166.414V20.5193H156.032V26.9168H165.067V28.8108H156.032V35.5732H166.54V37.5794H153.829V18.499Z" fill="#F2F2F2"/>
</svg>
